<?xml version="1.0" encoding="UTF-8" standalone="no"?>
<!-- Created with Inkscape (http://www.inkscape.org/) -->

<svg
   width="51.858334mm"
   height="51.858334mm"
   viewBox="0 0 51.858334 51.858334"
   version="1.1"
   id="svg1"
   inkscape:version="1.4.2 (2aeb623e1d, 2025-05-12)"
   sodipodi:docname="tai.svg"
   xmlns:inkscape="http://www.inkscape.org/namespaces/inkscape"
   xmlns:sodipodi="http://sodipodi.sourceforge.net/DTD/sodipodi-0.dtd"
   xmlns="http://www.w3.org/2000/svg"
   xmlns:svg="http://www.w3.org/2000/svg">
  <sodipodi:namedview
     id="namedview1"
     pagecolor="#ffffff"
     bordercolor="#666666"
     borderopacity="1.0"
     inkscape:showpageshadow="2"
     inkscape:pageopacity="0.0"
     inkscape:pagecheckerboard="0"
     inkscape:deskcolor="#d1d1d1"
     inkscape:document-units="mm"
     inkscape:zoom="0.74208053"
     inkscape:cx="197.41793"
     inkscape:cy="310.61319"
     inkscape:window-width="1920"
     inkscape:window-height="1016"
     inkscape:window-x="0"
     inkscape:window-y="0"
     inkscape:window-maximized="1"
     inkscape:current-layer="layer1" />
  <defs
     id="defs1" />
  <g
     inkscape:label="Layer 1"
     inkscape:groupmode="layer"
     id="layer1"
     transform="translate(-52.916668,-66.145836)">
    <path
       id="path322-8"
       style="fill:#ffffff;fill-opacity:1;stroke-width:0.264583"
       d="m 62.560515,78.951516 h 0.502812 c 0.449792,0.07937 0.89948,0.238228 1.349272,0.238228 1.137708,0.02646 2.249164,-0.05312 3.386873,-0.07958 0.79375,0 1.084688,0.158853 1.349272,0.899686 0.3175,0.978961 0.608335,1.958226 0.84646,2.963644 0.105833,0.396875 0.317913,0.555318 0.688332,0.608232 0.502708,0.07937 0.978958,0.132394 1.455208,0.238228 0.04018,0.02008 0.08866,0.04687 0.138494,0.07751 0.474357,-0.131466 0.974896,-0.236707 1.475361,-0.289388 0.370416,-0.05292 0.555728,-0.158647 0.635103,-0.555522 0.185208,-0.846668 0.423333,-1.666976 0.661458,-2.487185 0.211667,-0.793752 0.635,-1.375733 1.455209,-1.613858 h 0.502295 c 0.449792,0.07937 0.899996,0.238229 1.349788,0.238229 1.137708,0.02646 2.248649,-0.05312 3.38636,-0.07958 0.79375,0 1.08469,0.158853 1.34927,0.899686 0.3175,0.978959 0.60885,1.958227 0.84698,2.963644 0.10583,0.396875 0.31739,0.555316 0.68781,0.608232 0.50271,0.07937 0.97896,0.132395 1.45521,0.238228 0.038,0.01897 0.0833,0.04379 0.13022,0.07235 0.46894,-0.129113 0.96322,-0.232214 1.45728,-0.28422 0.37041,-0.05292 0.55572,-0.158647 0.6351,-0.555522 0.18521,-0.846667 0.42333,-1.666976 0.66146,-2.487187 0.21166,-0.79375 0.635,-1.37573 1.45521,-1.613855 h 0.50281 c 0.44979,0.07937 0.89948,0.238228 1.34927,0.238228 1.13771,0.02646 2.24865,-0.05312 3.38636,-0.07958 0.79375,0 1.0852,0.158855 1.34978,0.899689 0.3175,0.978958 0.60834,1.958226 0.84647,2.963643 0.10583,0.396875 0.31739,0.555316 0.68781,0.608232 0.50271,0.07937 0.97896,0.132395 1.45521,0.238229 0.158748,0.07937 0.423228,0.264686 0.423228,0.37052 0,0.185208 -0.1849,0.423436 -0.34365,0.502811 -0.238128,0.132292 -0.555938,0.237712 -0.846978,0.237712 -3.78354,0.211667 -7.54031,0.317709 -11.32386,0.07958 -0.55562,-0.02646 -1.11145,-0.132292 -1.66708,-0.264584 -0.0328,-0.0094 -0.0665,-0.02373 -0.0997,-0.04186 -0.23568,0.127068 -0.54344,0.226859 -0.8263,0.226859 -3.78354,0.211666 -7.540319,0.317709 -11.32386,0.07958 -0.555625,-0.02646 -1.111457,-0.132294 -1.667081,-0.264583 -0.03706,-0.01058 -0.07517,-0.02749 -0.112654,-0.04909 -0.237345,0.130524 -0.551477,0.234093 -0.839743,0.234093 -3.783544,0.211669 -7.540834,0.317709 -11.324375,0.07958 -0.555625,-0.02646 -1.110941,-0.132292 -1.666566,-0.264583 -0.185206,-0.05292 -0.397288,-0.26448 -0.423746,-0.42323 -0.02646,-0.132292 0.21177,-0.396772 0.37052,-0.423231 0.47625,-0.132291 0.978855,-0.238537 1.481563,-0.291454 0.370417,-0.05292 0.555729,-0.158647 0.635104,-0.555522 0.185208,-0.846667 0.423333,-1.666979 0.661458,-2.487187 0.211667,-0.79375 0.635,-1.37573 1.455208,-1.613855 z m 5.529895,6.376359 c 0.10418,-0.005 0.19612,0.0013 0.275953,0.0181 0.02661,0.0056 0.05157,0.0123 0.07545,0.02016 1.54e-4,5.1e-5 2.65e-4,-5e-5 5.29e-4,0 0.02371,0.0078 0.04619,0.01683 0.06718,0.02687 1.37e-4,6.9e-5 2.64e-4,-6.6e-5 5.29e-4,0 0.04208,0.02016 0.07846,0.04511 0.109553,0.0739 9.8e-5,9e-5 5.3e-4,-9e-5 5.3e-4,0 0.0077,0.0071 0.01521,0.01455 0.02223,0.02223 0.0071,0.0078 0.01373,0.0155 0.02016,0.02376 8.2e-5,1.03e-4 -8e-5,5.29e-4 0,5.29e-4 0.03833,0.04955 0.06437,0.108326 0.07751,0.175702 0.02196,0.112538 0.0088,0.249082 -0.04082,0.406175 -0.03833,0.134149 -0.09056,0.254364 -0.126606,0.380864 -0.01368,0.0482 -0.02527,0.0972 -0.03256,0.1483 -0.01241,0.16123 -0.04489,0.30238 -0.0956,0.4253 -0.165661,0.40155 -0.523168,0.61133 -0.989086,0.71262 -0.635,0.13229 -1.217393,0.0792 -1.640726,-0.47646 -0.15875,-0.21166 -0.237713,-0.44979 -0.370002,-0.66146 -0.05292,-0.10583 -0.158853,-0.1852 -0.238228,-0.26458 -0.07937,0.0794 -0.21177,0.15875 -0.238228,0.26458 -0.291042,0.82021 -0.926042,1.13761 -1.719792,1.21699 -0.486606,0.0442 -0.825336,-0.0962 -1.062469,-0.45269 -0.04653,-0.07 -0.0891,-0.14833 -0.128156,-0.23513 -0.01601,-0.04 -0.03153,-0.0804 -0.04651,-0.12092 -0.133636,-0.36142 -0.228846,-0.74176 -0.324011,-1.122416 -0.03472,-0.150479 -0.02357,-0.265467 0.02842,-0.347263 0.04457,-0.07011 0.119449,-0.115821 0.221692,-0.138493 0.05112,-0.01135 0.108625,-0.01704 0.173114,-0.01704 h 0.635103 5.3e-4 4.682918 c 0.211667,0 0.449792,-0.07958 0.661458,-0.07958 z m 13.916982,0 c 0.10914,-0.005 0.20542,0.0013 0.28835,0.0181 0.0276,0.0056 0.0533,0.0123 0.078,0.02016 1.6e-4,4.8e-5 2.7e-4,-5e-5 5.3e-4,0 0.0245,0.0078 0.0476,0.01683 0.0692,0.02687 1.4e-4,6.6e-5 2.7e-4,-6.4e-5 5.3e-4,0 0.0324,0.01511 0.0615,0.03273 0.0873,0.05271 1.1e-4,8.5e-5 5.3e-4,-8.5e-5 5.3e-4,0 0.008,0.0066 0.0165,0.01405 0.0243,0.02119 9e-5,8.8e-5 5.3e-4,-8.7e-5 5.3e-4,0 0.008,0.0071 0.0152,0.01455 0.0222,0.02222 0.0143,0.01551 0.0274,0.03204 0.0388,0.04961 0.0283,0.04392 0.0469,0.09411 0.0563,0.150378 0.0113,0.06752 0.009,0.143862 -0.007,0.227894 -0.005,0.02801 -0.0122,0.05656 -0.0207,0.0863 -4e-5,1.67e-4 5e-5,2.64e-4 0,5.29e-4 -0.002,0.0073 -0.005,0.01529 -0.007,0.02273 -0.007,0.02257 -0.0141,0.04522 -0.0227,0.06873 -0.0265,0.0926 -0.0597,0.178591 -0.0894,0.264579 -0.0297,0.086 -0.056,0.17198 -0.0692,0.26459 -0.007,0.0928 -0.0211,0.17865 -0.0413,0.25838 -0.0237,0.0938 -0.0563,0.17918 -0.0966,0.25632 -0.17972,0.3437 -0.51727,0.52975 -0.947229,0.62321 -0.635,0.1323 -1.216877,0.0792 -1.640211,-0.47645 -0.15875,-0.21167 -0.238228,-0.4498 -0.370519,-0.66146 -0.05292,-0.10584 -0.158854,-0.18521 -0.238229,-0.26459 -0.07937,0.0794 -0.21177,0.15875 -0.238228,0.26459 -0.291042,0.82021 -0.926042,1.1376 -1.719791,1.21698 -0.547077,0.0497 -0.907154,-0.1342 -1.146183,-0.59583 -0.0027,-0.005 -0.0056,-0.0107 -0.0083,-0.016 -0.01241,-0.0246 -0.02442,-0.0498 -0.03617,-0.076 -0.15875,-0.39688 -0.264686,-0.820009 -0.370522,-1.243342 -0.02971,-0.128746 -0.02545,-0.231823 0.0088,-0.310057 6.4e-5,-1.43e-4 -6.1e-5,-2.65e-4 0,-5.3e-4 0.05736,-0.130482 0.199986,-0.192236 0.414962,-0.192236 h 0.634587 5.3e-4 4.682918 c 0.05292,0 0.107385,-0.0049 0.162785,-0.01241 0.16619,-0.02233 0.33993,-0.06718 0.49868,-0.06718 z m 13.91698,0 c 0.10914,-0.005 0.20542,0.0013 0.28835,0.0181 0.12439,0.025 0.21879,0.07341 0.28319,0.143145 0.007,0.0078 0.0143,0.0155 0.0207,0.02376 0.007,0.0084 0.0123,0.01696 0.0181,0.02585 0.0113,0.01757 0.0211,0.03623 0.0295,0.05581 0.0125,0.02937 0.0212,0.06081 0.0269,0.09457 0.007,0.0444 0.009,0.09253 0.005,0.144177 -6e-5,7.93e-4 7e-5,0.0013 0,0.0021 -0.002,0.02638 -0.006,0.05345 -0.0119,0.08165 -0.005,0.02801 -0.0122,0.05656 -0.0207,0.0863 -0.008,0.0299 -0.0183,0.06039 -0.03,0.09198 -0.0397,0.138909 -0.0943,0.262828 -0.13022,0.394298 -0.012,0.0438 -0.0218,0.0886 -0.0284,0.13487 -0.01,0.13001 -0.0336,0.24703 -0.0687,0.35192 -5e-5,1.5e-4 5e-5,2.6e-4 0,5.3e-4 -0.0352,0.10484 -0.0826,0.1975 -0.14056,0.27956 -0.19067,0.26984 -0.49765,0.42368 -0.87592,0.50591 -0.635,0.1323 -1.21688,0.0792 -1.64021,-0.47645 -0.15875,-0.21167 -0.23823,-0.44979 -0.37052,-0.66146 -0.0529,-0.10583 -0.15885,-0.18521 -0.23823,-0.26458 -0.0794,0.0794 -0.21177,0.15875 -0.23823,0.26458 -0.29104,0.82021 -0.92604,1.13761 -1.71979,1.21698 -0.58208,0.0529 -0.9525,-0.15865 -1.19062,-0.68781 -0.003,-0.007 -0.005,-0.0131 -0.008,-0.0196 -0.15441,-0.39115 -0.25817,-0.807378 -0.36225,-1.223694 -0.0149,-0.06449 -0.0217,-0.122505 -0.0202,-0.174149 0.001,-0.03443 0.006,-0.06624 0.0139,-0.09509 0.004,-0.01426 0.009,-0.02791 0.0145,-0.04082 7e-5,-1.43e-4 -6e-5,-2.64e-4 0,-5.29e-4 0.0401,-0.09134 0.12205,-0.14873 0.24133,-0.175183 0.0511,-0.01135 0.10914,-0.01704 0.17364,-0.01704 h 0.6351 4.68292 c 0.0529,0 0.10738,-0.0049 0.16278,-0.01241 0.16619,-0.02233 0.33992,-0.06718 0.49868,-0.06718 z m -6.61458,0.608748 c 0.0529,0.502712 0.053,0.846562 0.10593,1.216982 0.0264,0.24619 0.0586,0.49041 0.0982,0.73173 0.0431,-0.1167 0.0923,-0.22997 0.14676,-0.33899 -0.23812,0.47625 -0.37052,1.03177 -0.37052,1.61385 0,2.06375 1.66688,3.70417 3.70417,3.70417 2.03729,0 3.70417,-1.66688 3.70417,-3.70417 0,-0.30966 -0.0451,-0.61208 -0.12299,-0.90278 -9e-5,-2.7e-4 8e-5,-8e-4 0,-10e-4 0.12247,-0.65674 0.216,-1.32961 0.32814,-2.002465 0.635,0.608545 1.26969,1.243955 1.93115,1.878955 -0.79375,1.32292 -1.58739,2.61938 -2.4076,3.96875 0.18521,0.0265 0.29104,0.0263 0.39687,0.0527 0.84667,0.10583 1.69334,0.18531 2.51354,0.37052 1.322918,0.3175 2.381458,0.9526 2.857708,2.3549 0.42333,1.50812 1.03188,2.88375 1.5875,4.28604 v 0.42323 c -0.26458,0.926035 -0.84687,1.693435 -1.53479,2.354895 -0.68792,0.635 -1.42885,1.19072 -2.09031,1.82572 -0.185208,0.18521 -0.370308,0.47594 -0.423228,0.74053 -0.0529,0.1852 -0.0794,0.31791 -0.13229,0.42374 V 97.710635 H 57.295204 v 5.979475 c -0.07937,-0.18521 -0.237919,-0.34406 -0.449585,-0.50281 -1.217084,-0.97896 -2.381147,-2.01043 -2.936772,-3.545005 v -0.58239 c 0.582083,-1.42875 1.190522,-2.85719 1.746147,-4.3124 0.3175,-0.79375 0.846666,-1.34938 1.5875,-1.71979 0.926041,-0.44979 1.931252,-0.68802 2.963127,-0.7674 0.529166,-0.0529 1.058746,-0.0794 1.614371,-0.13229 -0.873125,-1.42875 -1.746248,-2.77812 -2.645834,-4.23333 0.740836,-0.635 1.455209,-1.2174 2.248959,-1.905312 0.05292,0.502702 0.0525,0.847082 0.10542,1.217492 0.05134,0.47912 0.125315,0.95028 0.232545,1.40922 -0.02731,0.18782 -0.04031,0.37926 -0.04031,0.57051 0,2.06375 1.666875,3.70417 3.704167,3.70417 2.037292,0 3.704167,-1.66688 3.704167,-3.70417 0,-0.55025 -0.118753,-1.06642 -0.328663,-1.52187 v -5.3e-4 c 0.07319,-0.44897 0.140356,-0.90311 0.216008,-1.357023 0.635,0.608543 1.270207,1.243443 1.931668,1.878443 -0.793753,1.32291 -1.587916,2.61937 -2.408124,3.96875 0.185208,0.0265 0.291042,0.0262 0.396875,0.0527 0.846667,0.10584 1.693336,0.18531 2.513544,0.37053 0.15875,0.0264 0.291351,0.0794 0.450101,0.13229 0.740833,-0.26459 1.481563,-0.42303 2.275313,-0.47594 0.529167,-0.0529 1.05823,-0.0794 1.613855,-0.13229 -0.873125,-1.42875 -1.74625,-2.77813 -2.645833,-4.23334 0.740833,-0.635 1.455208,-1.21739 2.248958,-1.905308 0.05292,0.502708 0.05302,0.846558 0.105937,1.216978 0.035,0.32663 0.08027,0.6496 0.139525,0.96739 0.01,-0.0354 0.02297,-0.0695 0.03411,-0.10439 0.008,-0.0252 0.01564,-0.0505 0.02429,-0.0755 0.03712,-0.10735 0.07798,-0.213 0.126093,-0.31523 -0.04801,0.10207 -0.08898,0.20802 -0.126093,0.31523 -0.0086,0.0249 -0.01624,0.0503 -0.02429,0.0755 -0.109677,0.34362 -0.166915,0.70998 -0.166915,1.09089 0,2.06375 1.666875,3.70416 3.704167,3.70416 2.037292,0 3.70416,-1.66687 3.70416,-3.70416 0,-0.41585 -0.0682,-0.80932 -0.19688,-1.17978 v -5.2e-4 c 0.0935,-0.55154 0.16809,-1.11189 0.24288,-1.672769 0.635,0.608539 1.2702,1.243439 1.93166,1.878439 -0.79375,1.32292 -1.58739,2.61937 -2.4076,3.96875 0.18521,0.0265 0.29104,0.0263 0.39687,0.0527 0.84667,0.10583 1.69334,0.18531 2.51354,0.37052 0.15875,0.0265 0.29094,0.0794 0.42323,0.13229 0.71438,-0.26458 1.48157,-0.39708 2.27532,-0.47646 0.52916,-0.0529 1.05823,-0.0794 1.61385,-0.13229 -0.89958,-1.42875 -1.74625,-2.77812 -2.64583,-4.23333 0.74083,-0.635 1.45521,-1.21688 2.24896,-1.904794 z m -31.45855,12.329482 h 13.255524 v 6.932385 h -0.05323 c -0.529169,-0.0265 -1.057923,-0.13229 -1.560631,-0.13229 h -9.392709 c -0.238125,0 -0.450204,0.10542 -0.688329,0.10542 -0.423333,0.0265 -0.846357,0.053 -1.26969,-0.0264 -0.105834,-0.0265 -0.211977,-0.13229 -0.31781,-0.26459 l 0.02687,0.0264 z m 13.969693,0 h 13.229167 v 6.932385 h -0.0263 c -0.52917,-0.0265 -1.05844,-0.13229 -1.56115,-0.13229 h -9.392707 c -0.211667,0 -0.449688,0.10542 -0.687813,0.10542 -0.423334,0.0265 -0.846873,0.053 -1.270206,-0.0264 -0.105834,-0.0265 -0.211564,-0.10594 -0.290939,-0.23823 z m 13.916977,0 h 13.22917 v 6.932385 h -0.0527 c -0.52917,-0.0265 -1.05844,-0.13229 -1.56115,-0.13229 h -9.3927 c -0.23813,0 -0.44969,0.10542 -0.68782,0.10542 -0.42333,0.0265 -0.84687,0.053 -1.2702,-0.0264 -0.1323,-0.0265 -0.23792,-0.13229 -0.3173,-0.26459 0.0265,0.0265 0.0263,0.0532 0.0527,0.0532 z"
       sodipodi:nodetypes="ccccccccccccccccccccccccccccccccscccccccccccccccccscccscscsccscccccsccccccscccscsccsccccscscscsccccsscccscccccccccccccscsccscccccsccccsccccscscccccccccccccsccscscccscccsssccccccccccccccccccccccccccccssscccccccccccccccccccsssccccccccscccsccccsscccccccccssccccccccssccccc" />
  </g>
</svg>